<svg xmlns="http://www.w3.org/2000/svg" width="256" height="256" viewBox="0 0 256 256" fill="none">
  <g fill="#5BB6FF" opacity="0.95">
    <circle cx="60" cy="64" r="3"/>
    <circle cx="76" cy="78" r="2"/>
    <circle cx="92" cy="92" r="3"/>
    <circle cx="110" cy="108" r="2"/>
    <circle cx="128" cy="124" r="3"/>
    <circle cx="146" cy="140" r="2"/>
    <circle cx="164" cy="156" r="3"/>
    <circle cx="182" cy="172" r="2"/>
    <circle cx="40" cy="120" r="2"/>
    <circle cx="52" cy="150" r="1.8"/>
    <circle cx="88" cy="54" r="1.6"/>
    <circle cx="118" cy="56" r="1.8"/>
    <circle cx="150" cy="98" r="1.6"/>
    <circle cx="206" cy="120" r="1.8"/>
    <circle cx="214" cy="86" r="1.6"/>
    <circle cx="196" cy="206" r="1.8"/>
    <circle cx="120" cy="198" r="1.6"/>
    <circle cx="74" cy="210" r="1.8"/>
  </g>
  <g fill="#9DE7FF" opacity="0.95">
    <path d="M72 108l3 8 8 3-8 3-3 8-3-8-8-3 8-3 3-8z"/>
    <path d="M112 84l2.5 6.5 6.5 2.5-6.5 2.5-2.5 6.5-2.5-6.5-6.5-2.5 6.5-2.5 2.5-6.5z"/>
    <path d="M156 132l2.5 6.5 6.5 2.5-6.5 2.5-2.5 6.5-2.5-6.5-6.5-2.5 6.5-2.5 2.5-6.5z"/>
    <path d="M196 176l2.8 7.2 7.2 2.8-7.2 2.8-2.8 7.2-2.8-7.2-7.2-2.8 7.2-2.8 2.8-7.2z"/>
  </g>
  <path d="M194 52l7 18 18 7-18 7-7 18-7-18-18-7 18-7 7-18z" fill="#B6EEFF"/>
</svg>
