<svg xmlns="http://www.w3.org/2000/svg" viewBox="0 0 720 160" fill="none">
  <defs>
    <linearGradient id="space" x1="360" y1="0" x2="720" y2="160" gradientUnits="userSpaceOnUse">
      <stop offset="0%"  stop-color="#0B2F57"/>
      <stop offset="100%" stop-color="#071A33"/>
    </linearGradient>
    <radialGradient id="neb" cx="0" cy="0" r="1"
      gradientTransform="translate(600 80) scale(260 170)">
      <stop offset="0%" stop-color="#3FA9F5" stop-opacity="0.28"/>
      <stop offset="60%" stop-color="#3FA9F5" stop-opacity="0.12"/>
      <stop offset="100%" stop-color="#3FA9F5" stop-opacity="0"/>
    </radialGradient>
    <radialGradient id="planet" cx="35%" cy="30%" r="70%">
      <stop offset="0%" stop-color="#CDEEFF"/>
      <stop offset="55%" stop-color="#7DD3FC"/>
      <stop offset="100%" stop-color="#1E5FA8"/>
    </radialGradient>
    <linearGradient id="ring" x1="0" y1="0" x2="1" y2="1">
      <stop offset="0%" stop-color="#E6F7FF" stop-opacity="0.65"/>
      <stop offset="100%" stop-color="#E6F7FF" stop-opacity="0.18"/>
    </linearGradient>
    <symbol id="star4" viewBox="-8 -8 16 16">
      <path d="M0 -7 L1.6 -1.6 L7 0 L1.6 1.6 L0 7 L-1.6 1.6 L-7 0 L-1.6 -1.6 Z"
            fill="#E6F7FF"/>
    </symbol>
  </defs>

  <path d="
    M 720 0
    H 300
    C 260 4, 236 14, 226 30
    C 214 50, 244 68, 272 78
    C 305 90, 330 92, 360 98
    C 395 106, 418 118, 405 132
    C 392 146, 350 144, 328 154
    C 306 164, 338 170, 372 160
    H 720
    V 0
    Z"
    fill="url(#space)"/>

  <ellipse cx="600" cy="80" rx="260" ry="170" fill="url(#neb)"/>

  <g stroke="#D6F2FF" stroke-width="1.8" opacity="0.55" stroke-linecap="round">
    <path d="M300 48 L340 36 L380 48"/>
  </g>
  <g fill="#E6F7FF" opacity="0.85">
    <circle cx="300" cy="48" r="2.8"/>
    <circle cx="340" cy="36" r="2.4"/>
    <circle cx="380" cy="48" r="2.8"/>
  </g>

  <g opacity="0.75">
    <use href="#star4" x="260" y="60"
         transform="translate(260 60) scale(0.7) translate(-260 -60)"/>
    <use href="#star4" x="420" y="30"
         transform="translate(420 30) scale(0.6) translate(-420 -30)"/>
  </g>

  <circle cx="620" cy="104" r="32" fill="url(#planet)" opacity="0.95"/>
  <ellipse cx="620" cy="104" rx="52" ry="14"
           transform="rotate(-16 620 104)"
           stroke="url(#ring)"
           stroke-width="6"
           stroke-linecap="round"
           opacity="0.85"/>
</svg>
